<?xml version="1.0" encoding="utf-8"?>
<!-- Generator: Adobe Illustrator 16.0.0, SVG Export Plug-In . SVG Version: 6.00 Build 0)  -->
<!DOCTYPE svg PUBLIC "-//W3C//DTD SVG 1.1//EN" "http://www.w3.org/Graphics/SVG/1.1/DTD/svg11.dtd">
<svg version="1.1" id="Layer_1" xmlns="http://www.w3.org/2000/svg" xmlns:xlink="http://www.w3.org/1999/xlink" x="0px" y="0px"
	 width="60px" height="60px" viewBox="0 0 60 60" enable-background="new 0 0 60 60" xml:space="preserve">
<g>
	<g>
		<path fill="#CAD877" stroke="#111111" stroke-miterlimit="10" d="M57.499,30c0,15.186-12.312,27.5-27.5,27.5
			C14.811,57.5,2.5,45.186,2.5,30c0-15.185,12.311-27.5,27.499-27.5C45.188,2.5,57.499,14.815,57.499,30z"/>
	</g>
</g>
<path fill="#111111" d="M19.218,37.852c-0.381,0.289,1.123-0.131,2.18-0.566c0,0,0.654,0.188,0.934,0.094
	c0,0,0.281-0.094,0.934,0.094c0,0,0,0.187-0.093,0.373c0,0,0.56,0.188,1.026,0c0,0,0,0.094-0.187,0.279c0,0,0.747,0.279,1.308,0.188
	c0,0,0,0.188-0.188,0.188c0,0,0.561,0.279,1.307,0.188c0,0,0.188,0.187,0,0.279c0,0,0.654,0.094,1.027,0.094
	c0,0,0.188,0.279-0.094,0.467c0,0,0.654,0.188,1.121,0c0,0,0.187,0.094,0,0.279c0,0,1.4,0.188,1.96,0c0,0,0,0.188-0.093,0.28
	c0,0,1.654-0.351,2.24-0.467c0.935-0.187,1.867-0.562,1.867-0.562l0.84-0.56c0,0.093-0.373,0.467-0.373,0.467
	c3.08-1.493,5.229-3.641,5.229-3.641c1.961-1.587,2.986-3.734,2.986-3.734c0.188,0.095,0.375,0,0.375,0
	c0-0.467,0.279-0.935,0.279-0.935c0.746-1.307,0.467-2.427,0.467-2.427c0.094,0,0.373,0.188,0.373,0.188
	c0.094-0.468,0-1.027,0-1.027c0.187,0,0.279,0.28,0.279,0.28c-0.094-0.561-0.466-1.587-0.466-1.587c-0.095-1.12,0-2.147,0-2.147
	c0-1.494,0.84-2.614,0.84-2.614c0.279-0.374,0.841-0.467,0.841-0.467c1.026-0.187,2.053,0,2.053,0s-0.84-1.4-3.174-1.494
	c0,0-0.279,0.28-0.467,0.747c0,0-0.554,0.597-1.113,0.69l0.517-0.875c0.077-0.797,0.64-0.983,0.64-0.983
	c-0.559-0.583-1.693-1.523-4.056-1.726c0,0-3.082-0.187-4.763,0.747c0,0-0.746,0.467-1.399,0.84c0,0-0.935,0.747-3.547,1.773
	c0,0-2.147,1.121-2.895,2.054c0,0-1.494,1.586-2.428,2.8c0,0-0.84,1.121-1.213,1.867c0,0-0.561,1.307-1.307,2.241
	c0,0-1.494,1.866-2.147,2.427c0,0-2.241,2.146-3.641,2.987c0,0-3.174,2.428-4.108,2.894c0,0-1.12,0.654-2.147,1.309
	c0,0-0.887,0.605-2.521,1.867c0,0-1.244,1.119-1.058,1.307c0,0,0.856,0.109,1.711-0.28c0,0,1.213-0.84,1.4-1.026
	c0,0,0.529-0.063,0.28,0.375l-0.748,1.025c0,0-0.186,0.467,0.934-0.561c0,0,0.467-0.373,0.467,0.187c0,0-0.374,0.468-0.467,0.654
	c0,0-0.374,0.56,0.653,0.187c0,0,2.241-2.801,5.321-4.201c0,0-0.374,0.748,0.56,0c0,0,1.027-0.746,1.12-0.84
	c0,0,1.844-1.541,3.991-2.521c0,0,2.296-1.121,3.136-1.558c0,0-0.094,0.375,1.089-0.311c0,0,2.646-1.309,3.548-2.086
	c0,0,1.292,0.188,2.054-0.592c0,0,0.917-0.187,2.101-0.979c0,0,1.104-0.638,2.225-1.976c0,0-0.568,1.546-1.864,2.282
	c0,0-1.032,0.625-2.333,1.019c0,0-0.876,0.841-2.042,0.584c0,0-1.287,1.126-3.458,2.083c0,0-1.225,0.633-1.322,0.417
	c0,0-2.315,1.084-2.97,1.458C22.75,35.667,21.534,36.1,19.218,37.852z"/>
</svg>
