<?xml version="1.0" encoding="utf-8"?>
<!-- Generator: Adobe Illustrator 16.0.0, SVG Export Plug-In . SVG Version: 6.00 Build 0)  -->
<!DOCTYPE svg PUBLIC "-//W3C//DTD SVG 1.1//EN" "http://www.w3.org/Graphics/SVG/1.1/DTD/svg11.dtd">
<svg version="1.1" id="Layer_1" xmlns="http://www.w3.org/2000/svg" xmlns:xlink="http://www.w3.org/1999/xlink" x="0px" y="0px"
	 width="40px" height="40px" viewBox="0 0 40 40" enable-background="new 0 0 40 40" xml:space="preserve">
<g>
	<g>
		<circle fill="#CAD877" stroke="#111111" stroke-miterlimit="10" cx="20.31" cy="20" r="16.605"/>
	</g>
	<g>
		<g>
			<path fill="none" stroke="#111111" stroke-miterlimit="10" d="M16.148,16.695l5.515,5.516l1.146-1.145l7.858-7.858L25.15,7.692
				L16.148,16.695z M28.943,13.191l-7.297,7.298l-3.777-3.776l7.3-7.297L28.943,13.191z"/>
			
				<rect x="18.248" y="12.28" transform="matrix(-0.7071 0.7072 -0.7072 -0.7071 50.5316 8.9695)" fill="#232322" width="10.321" height="5.342"/>
			<circle fill="#CAD877" cx="25.057" cy="11.682" r="1.084"/>
			<g>
				<path fill="#FFFFFF" stroke="#CAD877" stroke-width="0.15" stroke-miterlimit="10" d="M21.413,19.886
					c0,0-0.103-0.072-0.259-0.227c-0.146-0.158-0.37-0.387-0.551-0.728c-0.173-0.335-0.359-0.786-0.304-1.309
					c0.05-0.523,0.36-1.022,0.763-1.376c0.234-0.174,0.467-0.303,0.728-0.379c0.252-0.101,0.519-0.104,0.772-0.107
					c0.254-0.014,0.483,0.096,0.703,0.141c0.215,0.07,0.385,0.205,0.555,0.293c0.177,0.083,0.308,0.197,0.408,0.318
					c0.105,0.109,0.199,0.205,0.274,0.283c0.146,0.16,0.229,0.252,0.229,0.252s-0.106-0.064-0.293-0.178
					c-0.189-0.098-0.41-0.322-0.752-0.428c-0.166-0.057-0.332-0.158-0.524-0.191c-0.196-0.008-0.396-0.074-0.601-0.051
					c-0.207,0.018-0.414,0.041-0.615,0.125c-0.202,0.059-0.403,0.184-0.559,0.301c-0.164,0.139-0.32,0.308-0.425,0.488
					c-0.114,0.178-0.187,0.373-0.229,0.569c-0.028,0.198-0.039,0.399-0.014,0.593c0.026,0.191,0.073,0.375,0.137,0.539
					C21.104,19.482,21.413,19.886,21.413,19.886z"/>
			</g>
			<g>
				<path fill="#232322" stroke="#CAD877" stroke-width="0.15" stroke-miterlimit="10" d="M24.675,16.991
					c0,0-2.337-2.339-0.362-4.256c0,0,1.943-1.948,4.561,0.669"/>
				<path fill="#FFFFFF" stroke="#CAD877" stroke-width="0.15" stroke-miterlimit="10" d="M24.675,16.991
					c0,0-0.126-0.095-0.315-0.294c-0.182-0.203-0.453-0.498-0.674-0.929c-0.213-0.424-0.436-0.989-0.357-1.633
					c0.047-0.313,0.133-0.646,0.313-0.929c0.168-0.298,0.381-0.538,0.646-0.777c0.537-0.417,1.215-0.633,1.846-0.605
					c0.314,0,0.612,0.077,0.879,0.17c0.26,0.103,0.506,0.209,0.702,0.347c0.21,0.12,0.38,0.259,0.521,0.394
					c0.148,0.123,0.268,0.24,0.356,0.346c0.181,0.206,0.283,0.324,0.283,0.324s-0.126-0.092-0.349-0.251
					c-0.209-0.167-0.541-0.372-0.946-0.565c-0.197-0.107-0.433-0.179-0.673-0.244c-0.246-0.057-0.508-0.089-0.773-0.08
					c-0.529,0.015-1.097,0.205-1.535,0.559c-0.195,0.17-0.408,0.396-0.541,0.63c-0.149,0.231-0.24,0.487-0.293,0.744
					c-0.037,0.259-0.045,0.519-0.007,0.767s0.101,0.482,0.185,0.69c0.166,0.418,0.348,0.76,0.496,0.984
					C24.58,16.865,24.675,16.991,24.675,16.991z"/>
			</g>
		</g>
	</g>
	<g>
		<path d="M19.657,31.417c0,0.051,0.005,0.076,0.005,0.076C19.664,31.471,19.658,31.439,19.657,31.417z"/>
		<path fill="#111111" d="M25.796,15.695c0,0-1.726-3.187-6.135-3.328c0,0-4.101-0.272-6.398,3.766c0,0-1.952,3.105-0.257,6.473
			c0,0,0.634,1.502,4.471,5.379c0,0,2.144,2.281,2.18,3.434c0.001-0.266,0.166-1.266,2.183-3.434c0,0,3.651-3.76,4.491-5.412
			C26.331,22.57,28.189,19.376,25.796,15.695z M19.667,19.161c-1.374,0-2.487-1.112-2.487-2.486c0-1.371,1.113-2.486,2.487-2.486
			c1.372,0,2.485,1.115,2.485,2.486C22.152,18.048,21.039,19.161,19.667,19.161z"/>
	</g>
	<circle fill="#111111" stroke="#CAD877" stroke-miterlimit="10" cx="19.667" cy="16.468" r="2.518"/>
</g>
</svg>
