<?xml version="1.0" encoding="utf-8"?>
<!-- Generator: Adobe Illustrator 16.0.0, SVG Export Plug-In . SVG Version: 6.00 Build 0)  -->
<!DOCTYPE svg PUBLIC "-//W3C//DTD SVG 1.1//EN" "http://www.w3.org/Graphics/SVG/1.1/DTD/svg11.dtd">
<svg version="1.1" id="Layer_1" xmlns="http://www.w3.org/2000/svg" xmlns:xlink="http://www.w3.org/1999/xlink" x="0px" y="0px"
	 width="40px" height="40px" viewBox="0 0 40 40" enable-background="new 0 0 40 40" xml:space="preserve">
<g>
	<g>
		<circle fill="#CAD877" stroke="#111111" stroke-miterlimit="10" cx="20.31" cy="20" r="16.605"/>
	</g>
	<g>
		<path d="M19.657,31.417c0,0.051,0.005,0.076,0.005,0.076C19.664,31.471,19.658,31.439,19.657,31.417z"/>
		<path fill="#111111" d="M25.796,15.695c0,0-1.726-3.187-6.135-3.328c0,0-4.101-0.272-6.398,3.766c0,0-1.952,3.105-0.257,6.473
			c0,0,0.634,1.502,4.471,5.379c0,0,2.144,2.281,2.18,3.434c0.001-0.266,0.166-1.266,2.183-3.434c0,0,3.651-3.76,4.491-5.412
			C26.331,22.57,28.189,19.376,25.796,15.695z M19.667,19.161c-1.374,0-2.487-1.112-2.487-2.486c0-1.371,1.113-2.486,2.487-2.486
			c1.372,0,2.485,1.115,2.485,2.486C22.152,18.048,21.039,19.161,19.667,19.161z"/>
	</g>
	<circle fill="#111111" stroke="#CAD877" stroke-miterlimit="10" cx="19.667" cy="16.468" r="2.518"/>
	<g>
		<g>
			<path fill="#111111" d="M25.292,8.21c0,0,0.11-0.042,0.33-0.056c0.215-0.012,0.519,0.002,0.881,0.073
				c0.197,0.011,0.353,0.131,0.552,0.261c0.049,0.033,0.104,0.075,0.161,0.132c0.029,0.023,0.076,0.085,0.106,0.131
				c0.06,0.076,0.078,0.295,0.07,0.265c0,0.102,0,0.205,0,0.311c0,0.421,0,0.871,0,1.321s0,0.899,0,1.32c0,0.105,0,0.209,0,0.311
				v0.019l-0.014,0.106l-0.004,0.009l-0.016,0.047c-0.026,0.079-0.116,0.197-0.143,0.215c-0.061,0.057-0.115,0.099-0.164,0.132
				c-0.197,0.133-0.355,0.245-0.553,0.255c-0.365,0.063-0.666,0.083-0.879,0.076c-0.217-0.013-0.33-0.053-0.33-0.053
				s0.115-0.036,0.281-0.146c0.17-0.099,0.402-0.261,0.65-0.478c0.108-0.132,0.278-0.182,0.399-0.269
				c0.03-0.021,0.053-0.041,0.065-0.052c0.013-0.014-0.055,0.061-0.049,0.102c0,0.012,0.008-0.018,0.01-0.024l0.004-0.009v-0.002
				c0.013-0.087-0.016,0.117-0.012,0.095v-0.005v-0.019c0-0.102,0-0.205,0-0.311c0-0.421,0-0.871,0-1.32s0-0.899,0-1.321
				c0-0.105,0-0.209,0-0.311c0.074,0.243,0.051,0.103-0.02,0.086c-0.119-0.09-0.295-0.132-0.402-0.263
				c-0.25-0.209-0.482-0.377-0.648-0.481C25.409,8.248,25.292,8.21,25.292,8.21z"/>
		</g>
		<g>
			<path fill="#111111" d="M28.745,8.21c0,0-0.117,0.038-0.281,0.148c-0.168,0.104-0.397,0.271-0.647,0.481
				c-0.109,0.131-0.283,0.173-0.402,0.263c-0.07,0.017-0.094,0.159-0.02-0.085c0,0.101,0,0.205,0,0.311c0,0.421,0,0.871,0,1.321
				c0,0.45,0,0.899,0,1.321c0,0.105,0,0.209,0,0.311V12.3v0.005c0.002,0.021-0.025-0.183-0.015-0.095l0.002,0.002l0.002,0.009
				c0.005,0.006,0.011,0.037,0.011,0.023c0.006-0.041-0.062-0.116-0.047-0.101c0.012,0.012,0.034,0.03,0.065,0.052
				c0.121,0.087,0.291,0.137,0.397,0.269c0.248,0.217,0.482,0.379,0.652,0.478c0.166,0.11,0.281,0.146,0.281,0.146
				s-0.113,0.04-0.33,0.053c-0.213,0.007-0.514-0.014-0.879-0.076c-0.197-0.01-0.355-0.122-0.555-0.255
				c-0.047-0.033-0.103-0.074-0.162-0.131c-0.023-0.017-0.117-0.136-0.144-0.214l-0.018-0.048l-0.003-0.009l-0.014-0.106V12.28
				c0-0.102,0-0.205,0-0.311c0-0.421,0-0.871,0-1.321s0-0.899,0-1.321c0-0.105,0-0.209,0-0.311c-0.01,0.031,0.012-0.194,0.07-0.266
				c0.031-0.045,0.078-0.107,0.105-0.13c0.061-0.057,0.115-0.099,0.162-0.132c0.201-0.13,0.354-0.25,0.553-0.261
				c0.361-0.071,0.666-0.085,0.881-0.073C28.634,8.169,28.745,8.21,28.745,8.21z"/>
		</g>
	</g>
</g>
</svg>
