<?xml version="1.0" encoding="utf-8"?>
<!-- Generator: Adobe Illustrator 16.0.0, SVG Export Plug-In . SVG Version: 6.00 Build 0)  -->
<!DOCTYPE svg PUBLIC "-//W3C//DTD SVG 1.1//EN" "http://www.w3.org/Graphics/SVG/1.1/DTD/svg11.dtd">
<svg version="1.1" id="Layer_1" xmlns="http://www.w3.org/2000/svg" xmlns:xlink="http://www.w3.org/1999/xlink" x="0px" y="0px"
	 width="40px" height="40px" viewBox="0 0 40 40" enable-background="new 0 0 40 40" xml:space="preserve">
<g>
	<g>
		<circle fill="#CAD877" stroke="#111111" stroke-miterlimit="10" cx="20.31" cy="20" r="16.605"/>
	</g>
	<g>
		<path d="M19.657,31.417c0,0.051,0.005,0.076,0.005,0.076C19.664,31.471,19.658,31.439,19.657,31.417z"/>
		<path fill="#111111" d="M25.796,15.695c0,0-1.726-3.187-6.135-3.328c0,0-4.101-0.272-6.398,3.766c0,0-1.952,3.105-0.257,6.473
			c0,0,0.634,1.502,4.471,5.379c0,0,2.144,2.281,2.18,3.434c0.001-0.266,0.166-1.266,2.183-3.434c0,0,3.651-3.76,4.491-5.412
			C26.331,22.57,28.189,19.376,25.796,15.695z M19.667,19.161c-1.374,0-2.487-1.112-2.487-2.486c0-1.371,1.113-2.486,2.487-2.486
			c1.372,0,2.485,1.115,2.485,2.486C22.152,18.048,21.039,19.161,19.667,19.161z"/>
	</g>
	<circle fill="#111111" stroke="#CAD877" stroke-miterlimit="10" cx="19.667" cy="16.468" r="2.518"/>
	<g>
		<path fill="#111111" d="M27.488,11.419c0,0.008-0.006,0.014-0.014,0.014h-1.17c-0.008,0-0.015-0.006-0.015-0.014l-0.086-4.164
			c0-0.008,0.093-0.014,0.101-0.014h1.17c0.008,0,0.101,0.006,0.101,0.014L27.488,11.419z"/>
		<path fill="#111111" d="M27.402,13.423c0,0.002-0.006,0.003-0.014,0.003h-0.998c-0.008,0-0.014-0.001-0.014-0.003l-0.087-1.042
			c0-0.002,0.007-0.004,0.015-0.004h1.17c0.008,0,0.014,0.002,0.014,0.004L27.402,13.423z"/>
	</g>
</g>
</svg>
