<?xml version="1.0" encoding="utf-8"?>
<!-- Generator: Adobe Illustrator 16.0.0, SVG Export Plug-In . SVG Version: 6.00 Build 0)  -->
<!DOCTYPE svg PUBLIC "-//W3C//DTD SVG 1.1//EN" "http://www.w3.org/Graphics/SVG/1.1/DTD/svg11.dtd">
<svg version="1.1" id="Layer_1" xmlns="http://www.w3.org/2000/svg" xmlns:xlink="http://www.w3.org/1999/xlink" x="0px" y="0px"
	 width="40px" height="40px" viewBox="0 0 40 40" enable-background="new 0 0 40 40" xml:space="preserve">
<g>
	<g>
		<circle fill="#CAD877" stroke="#111111" stroke-miterlimit="10" cx="20.31" cy="20" r="16.605"/>
	</g>
</g>
<path fill="#111111" d="M16.234,11.407c0,0-2.607,2.73-0.775,7.297c0,0,1.637,4.511,4.561,7.177c0,0,1.88,2.249,4.794,2.79
	c0,0,0.648,0.097,1.338-0.118c0.834-0.261,1.725-0.912,1.615-1.957c0,0-0.563-2.477-2.264-3.255c-0.63-0.286-1.042-0.095-1.732,0
	c0,0-2.008,0.646-3.026-0.641c0,0-1.742-1.998-2.256-3.845c0,0-0.767-1.711,0.99-2.994c0,0,1.322-0.882,0.815-2.409
	c0,0-0.858-2.479-1.581-2.905C18.713,10.548,17.718,9.619,16.234,11.407z"/>
</svg>
