<?xml version="1.0" encoding="utf-8"?>
<!-- Generator: Adobe Illustrator 16.0.0, SVG Export Plug-In . SVG Version: 6.00 Build 0)  -->
<!DOCTYPE svg PUBLIC "-//W3C//DTD SVG 1.1//EN" "http://www.w3.org/Graphics/SVG/1.1/DTD/svg11.dtd">
<svg version="1.1" id="Layer_1" xmlns="http://www.w3.org/2000/svg" xmlns:xlink="http://www.w3.org/1999/xlink" x="0px" y="0px"
	 width="60px" height="60px" viewBox="0 0 60 60" enable-background="new 0 0 60 60" xml:space="preserve">
<g>
	<g>
		<path fill="#CAD877" stroke="#111111" stroke-miterlimit="10" d="M57.499,30c0,15.186-12.312,27.5-27.5,27.5
			C14.811,57.5,2.5,45.186,2.5,30c0-15.185,12.311-27.5,27.499-27.5C45.188,2.5,57.499,14.815,57.499,30z"/>
	</g>
	<g>
		<path fill="#111111" d="M29.98,47.132c0,0.093,0.01,0.142,0.01,0.142C29.992,47.229,29.982,47.18,29.98,47.132z"/>
		<path fill="#111111" d="M41.064,18.747c0,0-3.111-5.757-11.078-6.014c0,0-7.404-0.487-11.552,6.803c0,0-3.526,5.607-0.464,11.687
			c0,0,1.145,2.711,8.073,9.715c0,0,3.871,4.117,3.937,6.194c0.002-0.479,0.3-2.282,3.942-6.194c0,0,6.595-6.793,8.109-9.771
			C42.032,31.165,45.393,25.393,41.064,18.747z M29.999,25.005c-2.479,0-4.49-2.011-4.49-4.491c0-2.477,2.011-4.489,4.49-4.489
			c2.478,0,4.489,2.012,4.489,4.489C34.488,22.994,32.477,25.005,29.999,25.005z"/>
	</g>
</g>
</svg>
